{"title":"Rise of the Planet of the Apes 2011 DVDRIP XVID AC3 - SCR0N","uid":6803669,"size":1464786631,"categoryP":"video","categoryS":"movies","magnet":"?xt=urn:btih:c3fced1be1471416c9d2176698b9cd9a3dd33125&amp;dn=Rise+of+the+Planet+of+the+Apes+2011+DVDRIP+XVID+AC3+-+SCR0N&amp;tr=udp%3A%2F%2Ftracker.openbittorrent.com%3A80&amp;tr=udp%3A%2F%2Fopen.demonii.com%3A1337&amp;tr=udp%3A%2F%2Ftracker.coppersurfer.tk%3A6969&amp;tr=udp%3A%2F%2Fexodus.desync.com%3A6969","seeders":0,"leechers":0,"uploader":"TvTeam","files":52,"time":1320779590,"description":". \n &lt;a href=&quot;\nhttp://www.torrenting.com&quot; rel=&quot;nofollow&quot; target=&quot;_NEW&quot;&gt;\nhttp://www.torrenting.com&lt;/a&gt;          :     Once &amp; For all ;)\n\n\n               www . Torrenting . Com \n\n(((((((((((((= Enjoy No RAR releases =))))))))))))))))))))\n\n\n...................................NFO:....................................\n\n.General\nComplete name                    : Rise of the Planet of the Apes 2011 DVDRIP XVID AC3 - SCR0N.avi\nFormat                           : AVI\nFormat/Info                      : Audio Video Interleave\nFile size                        : 694 MiB\nDuration                         : 1h 44mn\nOverall bit rate                 : 924 Kbps\n\nVideo\nID                               : 0\nFormat                           : MPEG-4 Visual\nFormat profile                   : Advanced Simple@L5\nFormat settings, BVOP            : 2\nFormat settings, QPel            : No\nFormat settings, GMC             : No warppoints\nFormat settings, Matrix          : Default (H.263)\nCodec ID                         : XVID\nCodec ID/Hint                    : XviD\nDuration                         : 1h 44mn\nBit rate                         : 758 Kbps\nWidth                            : 720 pixels\nHeight                           : 304 pixels\nDisplay aspect ratio             : 2.35:1\nFrame rate                       : 25.000 fps\nColor space                      : YUV\nChroma subsampling               : 4:2:0\nBit depth                        : 8 bits\nScan type                        : Progressive\nCompression mode                 : Lossy\nBits/(Pixel*Frame)               : 0.139\nStream size                      : 569 MiB (82%)\n\n\nAudio\nID                               : 1\nFormat                           : MPEG Audio\nFormat version                   : Version 1\nFormat profile                   : Layer 3\nMode                             : Joint stereo\nMode extension                   : MS Stereo\nCodec ID                         : 55\nCodec ID/Hint                    : MP3\nDuration                         : 1h 44mn\nBit rate mode                    : Constant\nBit rate                         : 160 Kbps\nChannel(s)                       : 2 channels\nSampling rate                    : 48.0 KHz\nCompression mode                 : Lossy\nStream size                      : 120 MiB (17%)\nAlignment                        : Aligned on interleaves\nInterleave, duration             : 160 ms (4.00 video frames)\nInterleave, preload duration     : 216 ms","torrent":{"xt":"urn:btih:c3fced1be1471416c9d2176698b9cd9a3dd33125","amp;dn":"Rise+of+the+Planet+of+the+Apes+2011+DVDRIP+XVID+AC3+-+SCR0N","amp;tr":["udp%3A%2F%2Ftracker.openbittorrent.com%3A80","udp%3A%2F%2Fopen.demonii.com%3A1337","udp%3A%2F%2Ftracker.coppersurfer.tk%3A6969","udp%3A%2F%2Fexodus.desync.com%3A6969"],"infoHash":"c3fced1be1471416c9d2176698b9cd9a3dd33125","infoHashBuffer":{"type":"Buffer","data":[195,252,237,27,225,71,20,22,201,210,23,102,152,185,205,154,61,211,49,37]},"announce":[],"urlList":[]}}